<?xml version="1.0" encoding="utf-8" standalone="no"?>
<!DOCTYPE svg PUBLIC "-//W3C//DTD SVG 1.1//EN"
  "http://www.w3.org/Graphics/SVG/1.1/DTD/svg11.dtd">
<svg xmlns:xlink="http://www.w3.org/1999/xlink" width="637.828783pt" height="366.67875pt" viewBox="0 0 637.828783 366.67875" xmlns="http://www.w3.org/2000/svg" version="1.1">
 <metadata>
  <rdf:RDF xmlns:dc="http://purl.org/dc/elements/1.1/" xmlns:cc="http://creativecommons.org/ns#" xmlns:rdf="http://www.w3.org/1999/02/22-rdf-syntax-ns#">
   <cc:Work>
    <dc:type rdf:resource="http://purl.org/dc/dcmitype/StillImage"/>
    <dc:date>2026-05-27T11:33:54.370651</dc:date>
    <dc:format>image/svg+xml</dc:format>
    <dc:creator>
     <cc:Agent>
      <dc:title>Matplotlib v3.10.9, https://matplotlib.org/</dc:title>
     </cc:Agent>
    </dc:creator>
   </cc:Work>
  </rdf:RDF>
 </metadata>
 <defs>
  <style type="text/css">*{stroke-linejoin: round; stroke-linecap: butt}</style>
 </defs>
 <g id="figure_1">
  <g id="patch_1">
   <path d="M 0 366.67875 
L 637.828783 366.67875 
L 637.828783 0 
L 0 0 
z
" style="fill: #ffffff"/>
  </g>
  <g id="axes_1">
   <g id="patch_2">
    <path d="M 49.14 334.23875 
L 630.628783 334.23875 
L 630.628783 7.2 
L 49.14 7.2 
z
" style="fill: #ffffff"/>
   </g>
   <g id="matplotlib.axis_1">
    <g id="xtick_1">
     <g id="line2d_1">
      <defs>
       <path id="m21c7fc85cd" d="M 0 0 
L 0 3.5 
" style="stroke: #000000; stroke-width: 0.8"/>
      </defs>
      <g>
       <use xlink:href="#m21c7fc85cd" x="242.969594" y="334.23875" style="stroke: #000000; stroke-width: 0.8"/>
      </g>
     </g>
    </g>
    <g id="xtick_2">
     <g id="line2d_2">
      <g>
       <use xlink:href="#m21c7fc85cd" x="404.494256" y="334.23875" style="stroke: #000000; stroke-width: 0.8"/>
      </g>
     </g>
    </g>
    <g id="xtick_3">
     <g id="line2d_3">
      <g>
       <use xlink:href="#m21c7fc85cd" x="452.951655" y="334.23875" style="stroke: #000000; stroke-width: 0.8"/>
      </g>
     </g>
    </g>
    <g id="text_1">
     <!-- Prediction, $\widehat{y}$ -->
     <g transform="translate(302.444391 356.95875) scale(0.12 -0.12)">
      <defs>
       <path id="DejaVuSans-50" d="M 1259 4147 
L 1259 2394 
L 2053 2394 
Q 2494 2394 2734 2622 
Q 2975 2850 2975 3272 
Q 2975 3691 2734 3919 
Q 2494 4147 2053 4147 
L 1259 4147 
z
M 628 4666 
L 2053 4666 
Q 2838 4666 3239 4311 
Q 3641 3956 3641 3272 
Q 3641 2581 3239 2228 
Q 2838 1875 2053 1875 
L 1259 1875 
L 1259 0 
L 628 0 
L 628 4666 
z
" transform="scale(0.015625)"/>
       <path id="DejaVuSans-72" d="M 2631 2963 
Q 2534 3019 2420 3045 
Q 2306 3072 2169 3072 
Q 1681 3072 1420 2755 
Q 1159 2438 1159 1844 
L 1159 0 
L 581 0 
L 581 3500 
L 1159 3500 
L 1159 2956 
Q 1341 3275 1631 3429 
Q 1922 3584 2338 3584 
Q 2397 3584 2469 3576 
Q 2541 3569 2628 3553 
L 2631 2963 
z
" transform="scale(0.015625)"/>
       <path id="DejaVuSans-65" d="M 3597 1894 
L 3597 1613 
L 953 1613 
Q 991 1019 1311 708 
Q 1631 397 2203 397 
Q 2534 397 2845 478 
Q 3156 559 3463 722 
L 3463 178 
Q 3153 47 2828 -22 
Q 2503 -91 2169 -91 
Q 1331 -91 842 396 
Q 353 884 353 1716 
Q 353 2575 817 3079 
Q 1281 3584 2069 3584 
Q 2775 3584 3186 3129 
Q 3597 2675 3597 1894 
z
M 3022 2063 
Q 3016 2534 2758 2815 
Q 2500 3097 2075 3097 
Q 1594 3097 1305 2825 
Q 1016 2553 972 2059 
L 3022 2063 
z
" transform="scale(0.015625)"/>
       <path id="DejaVuSans-64" d="M 2906 2969 
L 2906 4863 
L 3481 4863 
L 3481 0 
L 2906 0 
L 2906 525 
Q 2725 213 2448 61 
Q 2172 -91 1784 -91 
Q 1150 -91 751 415 
Q 353 922 353 1747 
Q 353 2572 751 3078 
Q 1150 3584 1784 3584 
Q 2172 3584 2448 3432 
Q 2725 3281 2906 2969 
z
M 947 1747 
Q 947 1113 1208 752 
Q 1469 391 1925 391 
Q 2381 391 2643 752 
Q 2906 1113 2906 1747 
Q 2906 2381 2643 2742 
Q 2381 3103 1925 3103 
Q 1469 3103 1208 2742 
Q 947 2381 947 1747 
z
" transform="scale(0.015625)"/>
       <path id="DejaVuSans-69" d="M 603 3500 
L 1178 3500 
L 1178 0 
L 603 0 
L 603 3500 
z
M 603 4863 
L 1178 4863 
L 1178 4134 
L 603 4134 
L 603 4863 
z
" transform="scale(0.015625)"/>
       <path id="DejaVuSans-63" d="M 3122 3366 
L 3122 2828 
Q 2878 2963 2633 3030 
Q 2388 3097 2138 3097 
Q 1578 3097 1268 2742 
Q 959 2388 959 1747 
Q 959 1106 1268 751 
Q 1578 397 2138 397 
Q 2388 397 2633 464 
Q 2878 531 3122 666 
L 3122 134 
Q 2881 22 2623 -34 
Q 2366 -91 2075 -91 
Q 1284 -91 818 406 
Q 353 903 353 1747 
Q 353 2603 823 3093 
Q 1294 3584 2113 3584 
Q 2378 3584 2631 3529 
Q 2884 3475 3122 3366 
z
" transform="scale(0.015625)"/>
       <path id="DejaVuSans-74" d="M 1172 4494 
L 1172 3500 
L 2356 3500 
L 2356 3053 
L 1172 3053 
L 1172 1153 
Q 1172 725 1289 603 
Q 1406 481 1766 481 
L 2356 481 
L 2356 0 
L 1766 0 
Q 1100 0 847 248 
Q 594 497 594 1153 
L 594 3053 
L 172 3053 
L 172 3500 
L 594 3500 
L 594 4494 
L 1172 4494 
z
" transform="scale(0.015625)"/>
       <path id="DejaVuSans-6f" d="M 1959 3097 
Q 1497 3097 1228 2736 
Q 959 2375 959 1747 
Q 959 1119 1226 758 
Q 1494 397 1959 397 
Q 2419 397 2687 759 
Q 2956 1122 2956 1747 
Q 2956 2369 2687 2733 
Q 2419 3097 1959 3097 
z
M 1959 3584 
Q 2709 3584 3137 3096 
Q 3566 2609 3566 1747 
Q 3566 888 3137 398 
Q 2709 -91 1959 -91 
Q 1206 -91 779 398 
Q 353 888 353 1747 
Q 353 2609 779 3096 
Q 1206 3584 1959 3584 
z
" transform="scale(0.015625)"/>
       <path id="DejaVuSans-6e" d="M 3513 2113 
L 3513 0 
L 2938 0 
L 2938 2094 
Q 2938 2591 2744 2837 
Q 2550 3084 2163 3084 
Q 1697 3084 1428 2787 
Q 1159 2491 1159 1978 
L 1159 0 
L 581 0 
L 581 3500 
L 1159 3500 
L 1159 2956 
Q 1366 3272 1645 3428 
Q 1925 3584 2291 3584 
Q 2894 3584 3203 3211 
Q 3513 2838 3513 2113 
z
" transform="scale(0.015625)"/>
       <path id="DejaVuSans-2c" d="M 750 794 
L 1409 794 
L 1409 256 
L 897 -744 
L 494 -744 
L 750 256 
L 750 794 
z
" transform="scale(0.015625)"/>
       <path id="DejaVuSans-20" transform="scale(0.015625)"/>
       <path id="STIXSizeTwoSym-Regular-302" d="M -1094 3610 
L -1728 3610 
L -4224 4538 
L -6726 3610 
L -7360 3610 
L -4378 4973 
L -4070 4973 
L -1094 3610 
z
" transform="scale(0.015625)"/>
       <path id="DejaVuSans-Oblique-79" d="M 1588 -325 
Q 1188 -997 936 -1164 
Q 684 -1331 294 -1331 
L -159 -1331 
L -63 -850 
L 269 -850 
Q 509 -850 678 -719 
Q 847 -588 1056 -206 
L 1234 128 
L 459 3500 
L 1069 3500 
L 1650 819 
L 3256 3500 
L 3859 3500 
L 1588 -325 
z
" transform="scale(0.015625)"/>
      </defs>
      <use xlink:href="#DejaVuSans-50" transform="translate(0 0.953125)"/>
      <use xlink:href="#DejaVuSans-72" transform="translate(60.302734 0.953125)"/>
      <use xlink:href="#DejaVuSans-65" transform="translate(101.416016 0.953125)"/>
      <use xlink:href="#DejaVuSans-64" transform="translate(162.939453 0.953125)"/>
      <use xlink:href="#DejaVuSans-69" transform="translate(226.416016 0.953125)"/>
      <use xlink:href="#DejaVuSans-63" transform="translate(254.199219 0.953125)"/>
      <use xlink:href="#DejaVuSans-74" transform="translate(309.179688 0.953125)"/>
      <use xlink:href="#DejaVuSans-69" transform="translate(348.388672 0.953125)"/>
      <use xlink:href="#DejaVuSans-6f" transform="translate(376.171875 0.953125)"/>
      <use xlink:href="#DejaVuSans-6e" transform="translate(437.353516 0.953125)"/>
      <use xlink:href="#DejaVuSans-2c" transform="translate(500.732422 0.953125)"/>
      <use xlink:href="#DejaVuSans-20" transform="translate(532.519531 0.953125)"/>
      <use xlink:href="#STIXSizeTwoSym-Regular-302" transform="translate(641.601562 34.046875) scale(0.604453)"/>
      <use xlink:href="#DejaVuSans-Oblique-79" transform="translate(564.306641 0.953125)"/>
     </g>
    </g>
   </g>
   <g id="matplotlib.axis_2">
    <g id="ytick_1">
     <g id="line2d_4">
      <defs>
       <path id="m1794de4698" d="M 0 0 
L -3.5 0 
" style="stroke: #000000; stroke-width: 0.8"/>
      </defs>
      <g>
       <use xlink:href="#m1794de4698" x="49.14" y="283.050076" style="stroke: #000000; stroke-width: 0.8"/>
      </g>
     </g>
     <g id="text_2">
      <!-- $-L_0$ -->
      <g transform="translate(23.44 286.849295) scale(0.1 -0.1)">
       <defs>
        <path id="DejaVuSans-2212" d="M 678 2272 
L 4684 2272 
L 4684 1741 
L 678 1741 
L 678 2272 
z
" transform="scale(0.015625)"/>
        <path id="DejaVuSans-Oblique-4c" d="M 1075 4666 
L 1709 4666 
L 909 525 
L 3181 525 
L 3078 0 
L 172 0 
L 1075 4666 
z
" transform="scale(0.015625)"/>
        <path id="DejaVuSans-30" d="M 2034 4250 
Q 1547 4250 1301 3770 
Q 1056 3291 1056 2328 
Q 1056 1369 1301 889 
Q 1547 409 2034 409 
Q 2525 409 2770 889 
Q 3016 1369 3016 2328 
Q 3016 3291 2770 3770 
Q 2525 4250 2034 4250 
z
M 2034 4750 
Q 2819 4750 3233 4129 
Q 3647 3509 3647 2328 
Q 3647 1150 3233 529 
Q 2819 -91 2034 -91 
Q 1250 -91 836 529 
Q 422 1150 422 2328 
Q 422 3509 836 4129 
Q 1250 4750 2034 4750 
z
" transform="scale(0.015625)"/>
       </defs>
       <use xlink:href="#DejaVuSans-2212" transform="translate(0 0.09375)"/>
       <use xlink:href="#DejaVuSans-Oblique-4c" transform="translate(83.789062 0.09375)"/>
       <use xlink:href="#DejaVuSans-30" transform="translate(139.501953 -16.3125) scale(0.7)"/>
      </g>
     </g>
    </g>
    <g id="ytick_2">
     <g id="line2d_5">
      <g>
       <use xlink:href="#m1794de4698" x="49.14" y="55.544859" style="stroke: #000000; stroke-width: 0.8"/>
      </g>
     </g>
     <g id="text_3">
      <!-- $-L_1$ -->
      <g transform="translate(23.44 59.344077) scale(0.1 -0.1)">
       <defs>
        <path id="DejaVuSans-31" d="M 794 531 
L 1825 531 
L 1825 4091 
L 703 3866 
L 703 4441 
L 1819 4666 
L 2450 4666 
L 2450 531 
L 3481 531 
L 3481 0 
L 794 0 
L 794 531 
z
" transform="scale(0.015625)"/>
       </defs>
       <use xlink:href="#DejaVuSans-2212" transform="translate(0 0.09375)"/>
       <use xlink:href="#DejaVuSans-Oblique-4c" transform="translate(83.789062 0.09375)"/>
       <use xlink:href="#DejaVuSans-31" transform="translate(139.501953 -16.3125) scale(0.7)"/>
      </g>
     </g>
    </g>
    <g id="ytick_3">
     <g id="line2d_6">
      <g>
       <use xlink:href="#m1794de4698" x="49.14" y="42.74769" style="stroke: #000000; stroke-width: 0.8"/>
      </g>
     </g>
     <g id="text_4">
      <!-- $0$ -->
      <g transform="translate(35.74 46.546909) scale(0.1 -0.1)">
       <use xlink:href="#DejaVuSans-30" transform="translate(0 0.78125)"/>
      </g>
     </g>
    </g>
    <g id="text_5">
     <!-- Negative loss, $-L(y,\,\widehat{y})$ -->
     <g transform="translate(16.92 239.179375) rotate(-90) scale(0.12 -0.12)">
      <defs>
       <path id="DejaVuSans-4e" d="M 628 4666 
L 1478 4666 
L 3547 763 
L 3547 4666 
L 4159 4666 
L 4159 0 
L 3309 0 
L 1241 3903 
L 1241 0 
L 628 0 
L 628 4666 
z
" transform="scale(0.015625)"/>
       <path id="DejaVuSans-67" d="M 2906 1791 
Q 2906 2416 2648 2759 
Q 2391 3103 1925 3103 
Q 1463 3103 1205 2759 
Q 947 2416 947 1791 
Q 947 1169 1205 825 
Q 1463 481 1925 481 
Q 2391 481 2648 825 
Q 2906 1169 2906 1791 
z
M 3481 434 
Q 3481 -459 3084 -895 
Q 2688 -1331 1869 -1331 
Q 1566 -1331 1297 -1286 
Q 1028 -1241 775 -1147 
L 775 -588 
Q 1028 -725 1275 -790 
Q 1522 -856 1778 -856 
Q 2344 -856 2625 -561 
Q 2906 -266 2906 331 
L 2906 616 
Q 2728 306 2450 153 
Q 2172 0 1784 0 
Q 1141 0 747 490 
Q 353 981 353 1791 
Q 353 2603 747 3093 
Q 1141 3584 1784 3584 
Q 2172 3584 2450 3431 
Q 2728 3278 2906 2969 
L 2906 3500 
L 3481 3500 
L 3481 434 
z
" transform="scale(0.015625)"/>
       <path id="DejaVuSans-61" d="M 2194 1759 
Q 1497 1759 1228 1600 
Q 959 1441 959 1056 
Q 959 750 1161 570 
Q 1363 391 1709 391 
Q 2188 391 2477 730 
Q 2766 1069 2766 1631 
L 2766 1759 
L 2194 1759 
z
M 3341 1997 
L 3341 0 
L 2766 0 
L 2766 531 
Q 2569 213 2275 61 
Q 1981 -91 1556 -91 
Q 1019 -91 701 211 
Q 384 513 384 1019 
Q 384 1609 779 1909 
Q 1175 2209 1959 2209 
L 2766 2209 
L 2766 2266 
Q 2766 2663 2505 2880 
Q 2244 3097 1772 3097 
Q 1472 3097 1187 3025 
Q 903 2953 641 2809 
L 641 3341 
Q 956 3463 1253 3523 
Q 1550 3584 1831 3584 
Q 2591 3584 2966 3190 
Q 3341 2797 3341 1997 
z
" transform="scale(0.015625)"/>
       <path id="DejaVuSans-76" d="M 191 3500 
L 800 3500 
L 1894 563 
L 2988 3500 
L 3597 3500 
L 2284 0 
L 1503 0 
L 191 3500 
z
" transform="scale(0.015625)"/>
       <path id="DejaVuSans-6c" d="M 603 4863 
L 1178 4863 
L 1178 0 
L 603 0 
L 603 4863 
z
" transform="scale(0.015625)"/>
       <path id="DejaVuSans-73" d="M 2834 3397 
L 2834 2853 
Q 2591 2978 2328 3040 
Q 2066 3103 1784 3103 
Q 1356 3103 1142 2972 
Q 928 2841 928 2578 
Q 928 2378 1081 2264 
Q 1234 2150 1697 2047 
L 1894 2003 
Q 2506 1872 2764 1633 
Q 3022 1394 3022 966 
Q 3022 478 2636 193 
Q 2250 -91 1575 -91 
Q 1294 -91 989 -36 
Q 684 19 347 128 
L 347 722 
Q 666 556 975 473 
Q 1284 391 1588 391 
Q 1994 391 2212 530 
Q 2431 669 2431 922 
Q 2431 1156 2273 1281 
Q 2116 1406 1581 1522 
L 1381 1569 
Q 847 1681 609 1914 
Q 372 2147 372 2553 
Q 372 3047 722 3315 
Q 1072 3584 1716 3584 
Q 2034 3584 2315 3537 
Q 2597 3491 2834 3397 
z
" transform="scale(0.015625)"/>
       <path id="DejaVuSans-28" d="M 1984 4856 
Q 1566 4138 1362 3434 
Q 1159 2731 1159 2009 
Q 1159 1288 1364 580 
Q 1569 -128 1984 -844 
L 1484 -844 
Q 1016 -109 783 600 
Q 550 1309 550 2009 
Q 550 2706 781 3412 
Q 1013 4119 1484 4856 
L 1984 4856 
z
" transform="scale(0.015625)"/>
       <path id="DejaVuSans-29" d="M 513 4856 
L 1013 4856 
Q 1481 4119 1714 3412 
Q 1947 2706 1947 2009 
Q 1947 1309 1714 600 
Q 1481 -109 1013 -844 
L 513 -844 
Q 928 -128 1133 580 
Q 1338 1288 1338 2009 
Q 1338 2731 1133 3434 
Q 928 4138 513 4856 
z
" transform="scale(0.015625)"/>
      </defs>
      <use xlink:href="#DejaVuSans-4e" transform="translate(0 0.953125)"/>
      <use xlink:href="#DejaVuSans-65" transform="translate(74.804688 0.953125)"/>
      <use xlink:href="#DejaVuSans-67" transform="translate(136.328125 0.953125)"/>
      <use xlink:href="#DejaVuSans-61" transform="translate(199.804688 0.953125)"/>
      <use xlink:href="#DejaVuSans-74" transform="translate(261.083984 0.953125)"/>
      <use xlink:href="#DejaVuSans-69" transform="translate(300.292969 0.953125)"/>
      <use xlink:href="#DejaVuSans-76" transform="translate(328.076172 0.953125)"/>
      <use xlink:href="#DejaVuSans-65" transform="translate(387.255859 0.953125)"/>
      <use xlink:href="#DejaVuSans-20" transform="translate(448.779297 0.953125)"/>
      <use xlink:href="#DejaVuSans-6c" transform="translate(480.566406 0.953125)"/>
      <use xlink:href="#DejaVuSans-6f" transform="translate(508.349609 0.953125)"/>
      <use xlink:href="#DejaVuSans-73" transform="translate(569.53125 0.953125)"/>
      <use xlink:href="#DejaVuSans-73" transform="translate(621.630859 0.953125)"/>
      <use xlink:href="#DejaVuSans-2c" transform="translate(673.730469 0.953125)"/>
      <use xlink:href="#DejaVuSans-20" transform="translate(705.517578 0.953125)"/>
      <use xlink:href="#DejaVuSans-2212" transform="translate(737.304688 0.953125)"/>
      <use xlink:href="#DejaVuSans-Oblique-4c" transform="translate(821.09375 0.953125)"/>
      <use xlink:href="#DejaVuSans-28" transform="translate(876.806641 0.953125)"/>
      <use xlink:href="#DejaVuSans-Oblique-79" transform="translate(915.820312 0.953125)"/>
      <use xlink:href="#DejaVuSans-2c" transform="translate(975 0.953125)"/>
      <use xlink:href="#STIXSizeTwoSym-Regular-302" transform="translate(1119.800129 34.046875) scale(0.604453)"/>
      <use xlink:href="#DejaVuSans-Oblique-79" transform="translate(1042.505208 0.953125)"/>
      <use xlink:href="#DejaVuSans-29" transform="translate(1101.684895 0.953125)"/>
     </g>
    </g>
   </g>
   <g id="LineCollection_1">
    <path d="M 242.969594 283.050076 
L 242.969594 42.74769 
" clip-path="url(#p905517ece1)" style="fill: none; stroke-dasharray: 5.55,2.4; stroke-dashoffset: 0; stroke: #2166ac; stroke-opacity: 0.55; stroke-width: 1.5"/>
    <path d="M 404.494256 283.050076 
L 404.494256 42.74769 
" clip-path="url(#p905517ece1)" style="fill: none; stroke-dasharray: 5.55,2.4; stroke-dashoffset: 0; stroke: #d6604d; stroke-opacity: 0.55; stroke-width: 1.5"/>
   </g>
   <g id="LineCollection_2">
    <path d="M 81.444932 283.050076 
L 242.969594 283.050076 
" clip-path="url(#p905517ece1)" style="fill: none; stroke-dasharray: 5.55,2.4; stroke-dashoffset: 0; stroke: #2166ac; stroke-opacity: 0.55; stroke-width: 1.5"/>
    <path d="M 81.444932 55.544859 
L 404.494256 55.544859 
" clip-path="url(#p905517ece1)" style="fill: none; stroke-dasharray: 5.55,2.4; stroke-dashoffset: 0; stroke: #d6604d; stroke-opacity: 0.55; stroke-width: 1.5"/>
   </g>
   <g id="line2d_7">
    <path d="M 49.14 42.74769 
L 630.628783 42.74769 
" clip-path="url(#p905517ece1)" style="fill: none; stroke: #000000; stroke-width: 0.9; stroke-linecap: square"/>
   </g>
   <g id="patch_3">
    <path d="M 49.14 334.23875 
L 49.14 7.2 
" style="fill: none; stroke: #000000; stroke-width: 0.8; stroke-linejoin: miter; stroke-linecap: square"/>
   </g>
   <g id="patch_4">
    <path d="M 49.14 334.23875 
L 630.628783 334.23875 
" style="fill: none; stroke: #000000; stroke-width: 0.8; stroke-linejoin: miter; stroke-linecap: square"/>
   </g>
   <g id="line2d_8">
    <path d="M 208.77815 367.67875 
L 215.517334 349.989764 
L 223.004314 330.918827 
L 230.491294 312.458883 
L 237.978274 294.609934 
L 245.465254 277.371979 
L 252.952234 260.745019 
L 259.607328 246.478431 
L 266.262421 232.694605 
L 272.917514 219.393539 
L 279.572608 206.575234 
L 286.227701 194.23969 
L 292.882795 182.386906 
L 299.537888 171.016884 
L 306.192981 160.129622 
L 312.016188 150.999283 
L 317.839395 142.238557 
L 323.662601 133.847445 
L 329.485808 125.825947 
L 335.309015 118.174063 
L 341.132221 110.891792 
L 346.955428 103.979135 
L 352.778635 97.436092 
L 358.601842 91.262662 
L 364.425048 85.458847 
L 369.416368 80.77833 
L 374.407688 76.369366 
L 379.399008 72.231955 
L 384.390328 68.366097 
L 389.381648 64.771792 
L 394.372968 61.44904 
L 399.364288 58.397841 
L 404.355608 55.618195 
L 409.346928 53.110102 
L 414.338249 50.873561 
L 419.329569 48.908574 
L 424.320889 47.21514 
L 429.312209 45.793258 
L 434.303529 44.64293 
L 439.294849 43.764154 
L 443.454282 43.239278 
L 447.613715 42.902979 
L 451.773149 42.75526 
L 455.932582 42.796118 
L 460.092015 43.025555 
L 464.251449 43.443571 
L 468.410882 44.050165 
L 472.570315 44.845337 
L 477.561636 46.048468 
L 482.552956 47.523151 
L 487.544276 49.269387 
L 492.535596 51.287177 
L 497.526916 53.576519 
L 502.518236 56.137414 
L 507.509556 58.969862 
L 512.500876 62.073863 
L 517.492196 65.449417 
L 522.483516 69.096524 
L 527.474836 73.015184 
L 532.466156 77.205397 
L 537.457476 81.667163 
L 542.448796 86.400482 
L 547.440116 91.405353 
L 553.263323 97.587583 
L 559.086529 104.139427 
L 564.909736 111.060884 
L 570.732943 118.351955 
L 576.556149 126.01264 
L 582.379356 134.042938 
L 588.202563 142.44285 
L 594.025769 151.212376 
L 599.848976 160.351516 
L 605.672183 169.860269 
L 612.327276 181.180004 
L 618.98237 192.9825 
L 625.637463 205.267757 
L 630.628783 214.798511 
L 630.628783 214.798511 
" clip-path="url(#p905517ece1)" style="fill: none; stroke: #808080; stroke-width: 1.5; stroke-linecap: square"/>
   </g>
   <g id="patch_5">
    <path d="M 73.368699 281.047047 
Q 73.368699 169.295532 73.368699 60.898118 
" style="fill: none; stroke: #555555; stroke-width: 3; stroke-linecap: round"/>
    <path d="M 70.568699 66.498118 
L 73.368699 60.898118 
L 76.168699 66.498118 
" style="fill: none; stroke: #555555; stroke-width: 3; stroke-linecap: round"/>
   </g>
   <g id="patch_6">
    <path d="M 244.965978 295.847245 
Q 323.729657 295.847245 400.257269 295.847245 
" style="fill: none; stroke: #555555; stroke-width: 2; stroke-linecap: round"/>
    <path d="M 394.657269 293.047245 
L 400.257269 295.847245 
L 394.657269 298.647245 
" style="fill: none; stroke: #555555; stroke-width: 2; stroke-linecap: round"/>
   </g>
   <g id="text_6">
    <!-- $f(x_0)$ -->
    <g style="fill: #2166ac" transform="translate(231.419594 31.321619) scale(0.105 -0.105)">
     <defs>
      <path id="DejaVuSans-Oblique-66" d="M 3059 4863 
L 2969 4384 
L 2419 4384 
Q 2106 4384 1964 4261 
Q 1822 4138 1753 3809 
L 1691 3500 
L 2638 3500 
L 2553 3053 
L 1606 3053 
L 1013 0 
L 434 0 
L 1031 3053 
L 481 3053 
L 563 3500 
L 1113 3500 
L 1159 3744 
Q 1278 4363 1576 4613 
Q 1875 4863 2516 4863 
L 3059 4863 
z
" transform="scale(0.015625)"/>
      <path id="DejaVuSans-Oblique-78" d="M 3841 3500 
L 2234 1784 
L 3219 0 
L 2559 0 
L 1819 1388 
L 531 0 
L -166 0 
L 1556 1844 
L 641 3500 
L 1300 3500 
L 1972 2234 
L 3144 3500 
L 3841 3500 
z
" transform="scale(0.015625)"/>
     </defs>
     <use xlink:href="#DejaVuSans-Oblique-66" transform="translate(0 0.015625)"/>
     <use xlink:href="#DejaVuSans-28" transform="translate(35.205078 0.015625)"/>
     <use xlink:href="#DejaVuSans-Oblique-78" transform="translate(74.21875 0.015625)"/>
     <use xlink:href="#DejaVuSans-30" transform="translate(133.398438 -16.390625) scale(0.7)"/>
     <use xlink:href="#DejaVuSans-29" transform="translate(180.668945 0.015625)"/>
    </g>
   </g>
   <g id="text_7">
    <!-- $f(x_1)$ -->
    <g style="fill: #d6604d" transform="translate(392.944256 31.321619) scale(0.105 -0.105)">
     <use xlink:href="#DejaVuSans-Oblique-66" transform="translate(0 0.015625)"/>
     <use xlink:href="#DejaVuSans-28" transform="translate(35.205078 0.015625)"/>
     <use xlink:href="#DejaVuSans-Oblique-78" transform="translate(74.21875 0.015625)"/>
     <use xlink:href="#DejaVuSans-31" transform="translate(133.398438 -16.390625) scale(0.7)"/>
     <use xlink:href="#DejaVuSans-29" transform="translate(180.668945 0.015625)"/>
    </g>
   </g>
   <g id="text_8">
    <!-- $y$ -->
    <g style="fill: #1a9641" transform="translate(449.801655 31.300291) scale(0.105 -0.105)">
     <use xlink:href="#DejaVuSans-Oblique-79" transform="translate(0 0.3125)"/>
    </g>
   </g>
   <g id="line2d_9">
    <defs>
     <path id="m8a0ef4c812" d="M 0 4.5 
C 1.193414 4.5 2.338109 4.025852 3.181981 3.181981 
C 4.025852 2.338109 4.5 1.193414 4.5 0 
C 4.5 -1.193414 4.025852 -2.338109 3.181981 -3.181981 
C 2.338109 -4.025852 1.193414 -4.5 0 -4.5 
C -1.193414 -4.5 -2.338109 -4.025852 -3.181981 -3.181981 
C -4.025852 -2.338109 -4.5 -1.193414 -4.5 0 
C -4.5 1.193414 -4.025852 2.338109 -3.181981 3.181981 
C -2.338109 4.025852 -1.193414 4.5 0 4.5 
z
" style="stroke: #2166ac"/>
    </defs>
    <g clip-path="url(#p905517ece1)">
     <use xlink:href="#m8a0ef4c812" x="242.969594" y="283.050076" style="fill: #2166ac; stroke: #2166ac"/>
    </g>
   </g>
   <g id="line2d_10">
    <defs>
     <path id="m0653a00933" d="M 0 4.5 
C 1.193414 4.5 2.338109 4.025852 3.181981 3.181981 
C 4.025852 2.338109 4.5 1.193414 4.5 0 
C 4.5 -1.193414 4.025852 -2.338109 3.181981 -3.181981 
C 2.338109 -4.025852 1.193414 -4.5 0 -4.5 
C -1.193414 -4.5 -2.338109 -4.025852 -3.181981 -3.181981 
C -4.025852 -2.338109 -4.5 -1.193414 -4.5 0 
C -4.5 1.193414 -4.025852 2.338109 -3.181981 3.181981 
C -2.338109 4.025852 -1.193414 4.5 0 4.5 
z
" style="stroke: #d6604d"/>
    </defs>
    <g clip-path="url(#p905517ece1)">
     <use xlink:href="#m0653a00933" x="404.494256" y="55.544859" style="fill: #d6604d; stroke: #d6604d"/>
    </g>
   </g>
   <g id="line2d_11">
    <defs>
     <path id="m91e2e48d01" d="M 0 4.5 
C 1.193414 4.5 2.338109 4.025852 3.181981 3.181981 
C 4.025852 2.338109 4.5 1.193414 4.5 0 
C 4.5 -1.193414 4.025852 -2.338109 3.181981 -3.181981 
C 2.338109 -4.025852 1.193414 -4.5 0 -4.5 
C -1.193414 -4.5 -2.338109 -4.025852 -3.181981 -3.181981 
C -4.025852 -2.338109 -4.5 -1.193414 -4.5 0 
C -4.5 1.193414 -4.025852 2.338109 -3.181981 3.181981 
C -2.338109 4.025852 -1.193414 4.5 0 4.5 
z
" style="stroke: #1a9641"/>
    </defs>
    <g clip-path="url(#p905517ece1)">
     <use xlink:href="#m91e2e48d01" x="452.951655" y="42.74769" style="fill: #1a9641; stroke: #1a9641"/>
    </g>
   </g>
   <g id="text_9">
    <g id="patch_7">
     <path d="M 84.675426 182.321077 
L 207.985426 182.321077 
Q 210.360426 182.321077 210.360426 179.946077 
L 210.360426 158.668155 
Q 210.360426 156.293155 207.985426 156.293155 
L 84.675426 156.293155 
Q 82.300426 156.293155 82.300426 158.668155 
L 82.300426 179.946077 
Q 82.300426 182.321077 84.675426 182.321077 
L 84.675426 182.321077 
z
" style="fill: none; opacity: 0.88"/>
    </g>
    <!-- EDEF attribution -->
    <g transform="translate(84.675426 165.867374) scale(0.095 -0.095)">
     <defs>
      <path id="DejaVuSans-45" d="M 628 4666 
L 3578 4666 
L 3578 4134 
L 1259 4134 
L 1259 2753 
L 3481 2753 
L 3481 2222 
L 1259 2222 
L 1259 531 
L 3634 531 
L 3634 0 
L 628 0 
L 628 4666 
z
" transform="scale(0.015625)"/>
      <path id="DejaVuSans-44" d="M 1259 4147 
L 1259 519 
L 2022 519 
Q 2988 519 3436 956 
Q 3884 1394 3884 2338 
Q 3884 3275 3436 3711 
Q 2988 4147 2022 4147 
L 1259 4147 
z
M 628 4666 
L 1925 4666 
Q 3281 4666 3915 4102 
Q 4550 3538 4550 2338 
Q 4550 1131 3912 565 
Q 3275 0 1925 0 
L 628 0 
L 628 4666 
z
" transform="scale(0.015625)"/>
      <path id="DejaVuSans-46" d="M 628 4666 
L 3309 4666 
L 3309 4134 
L 1259 4134 
L 1259 2759 
L 3109 2759 
L 3109 2228 
L 1259 2228 
L 1259 0 
L 628 0 
L 628 4666 
z
" transform="scale(0.015625)"/>
      <path id="DejaVuSans-62" d="M 3116 1747 
Q 3116 2381 2855 2742 
Q 2594 3103 2138 3103 
Q 1681 3103 1420 2742 
Q 1159 2381 1159 1747 
Q 1159 1113 1420 752 
Q 1681 391 2138 391 
Q 2594 391 2855 752 
Q 3116 1113 3116 1747 
z
M 1159 2969 
Q 1341 3281 1617 3432 
Q 1894 3584 2278 3584 
Q 2916 3584 3314 3078 
Q 3713 2572 3713 1747 
Q 3713 922 3314 415 
Q 2916 -91 2278 -91 
Q 1894 -91 1617 61 
Q 1341 213 1159 525 
L 1159 0 
L 581 0 
L 581 4863 
L 1159 4863 
L 1159 2969 
z
" transform="scale(0.015625)"/>
      <path id="DejaVuSans-75" d="M 544 1381 
L 544 3500 
L 1119 3500 
L 1119 1403 
Q 1119 906 1312 657 
Q 1506 409 1894 409 
Q 2359 409 2629 706 
Q 2900 1003 2900 1516 
L 2900 3500 
L 3475 3500 
L 3475 0 
L 2900 0 
L 2900 538 
Q 2691 219 2414 64 
Q 2138 -91 1772 -91 
Q 1169 -91 856 284 
Q 544 659 544 1381 
z
M 1991 3584 
L 1991 3584 
z
" transform="scale(0.015625)"/>
     </defs>
     <use xlink:href="#DejaVuSans-45"/>
     <use xlink:href="#DejaVuSans-44" transform="translate(63.183594 0)"/>
     <use xlink:href="#DejaVuSans-45" transform="translate(140.185547 0)"/>
     <use xlink:href="#DejaVuSans-46" transform="translate(203.369141 0)"/>
     <use xlink:href="#DejaVuSans-20" transform="translate(260.888672 0)"/>
     <use xlink:href="#DejaVuSans-61" transform="translate(292.675781 0)"/>
     <use xlink:href="#DejaVuSans-74" transform="translate(353.955078 0)"/>
     <use xlink:href="#DejaVuSans-74" transform="translate(393.164062 0)"/>
     <use xlink:href="#DejaVuSans-72" transform="translate(432.373047 0)"/>
     <use xlink:href="#DejaVuSans-69" transform="translate(473.486328 0)"/>
     <use xlink:href="#DejaVuSans-62" transform="translate(501.269531 0)"/>
     <use xlink:href="#DejaVuSans-75" transform="translate(564.746094 0)"/>
     <use xlink:href="#DejaVuSans-74" transform="translate(628.125 0)"/>
     <use xlink:href="#DejaVuSans-69" transform="translate(667.333984 0)"/>
     <use xlink:href="#DejaVuSans-6f" transform="translate(695.117188 0)"/>
     <use xlink:href="#DejaVuSans-6e" transform="translate(756.298828 0)"/>
    </g>
    <!-- $\Delta L = L(y,f(x_0)) - L(y,f(x_1))$ -->
    <g transform="translate(84.675426 177.951077) scale(0.095 -0.095)">
     <defs>
      <path id="DejaVuSans-394" d="M 2188 4044 
L 906 525 
L 3472 525 
L 2188 4044 
z
M 50 0 
L 1831 4666 
L 2547 4666 
L 4325 0 
L 50 0 
z
" transform="scale(0.015625)"/>
      <path id="DejaVuSans-3d" d="M 678 2906 
L 4684 2906 
L 4684 2381 
L 678 2381 
L 678 2906 
z
M 678 1631 
L 4684 1631 
L 4684 1100 
L 678 1100 
L 678 1631 
z
" transform="scale(0.015625)"/>
     </defs>
     <use xlink:href="#DejaVuSans-394" transform="translate(0 0.015625)"/>
     <use xlink:href="#DejaVuSans-Oblique-4c" transform="translate(68.408203 0.015625)"/>
     <use xlink:href="#DejaVuSans-3d" transform="translate(143.603516 0.015625)"/>
     <use xlink:href="#DejaVuSans-Oblique-4c" transform="translate(246.875 0.015625)"/>
     <use xlink:href="#DejaVuSans-28" transform="translate(302.587891 0.015625)"/>
     <use xlink:href="#DejaVuSans-Oblique-79" transform="translate(341.601562 0.015625)"/>
     <use xlink:href="#DejaVuSans-2c" transform="translate(400.78125 0.015625)"/>
     <use xlink:href="#DejaVuSans-Oblique-66" transform="translate(452.050781 0.015625)"/>
     <use xlink:href="#DejaVuSans-28" transform="translate(487.255859 0.015625)"/>
     <use xlink:href="#DejaVuSans-Oblique-78" transform="translate(526.269531 0.015625)"/>
     <use xlink:href="#DejaVuSans-30" transform="translate(585.449219 -16.390625) scale(0.7)"/>
     <use xlink:href="#DejaVuSans-29" transform="translate(632.719727 0.015625)"/>
     <use xlink:href="#DejaVuSans-29" transform="translate(671.733398 0.015625)"/>
     <use xlink:href="#DejaVuSans-2212" transform="translate(730.229492 0.015625)"/>
     <use xlink:href="#DejaVuSans-Oblique-4c" transform="translate(833.500977 0.015625)"/>
     <use xlink:href="#DejaVuSans-28" transform="translate(889.213867 0.015625)"/>
     <use xlink:href="#DejaVuSans-Oblique-79" transform="translate(928.227539 0.015625)"/>
     <use xlink:href="#DejaVuSans-2c" transform="translate(987.407227 0.015625)"/>
     <use xlink:href="#DejaVuSans-Oblique-66" transform="translate(1038.676758 0.015625)"/>
     <use xlink:href="#DejaVuSans-28" transform="translate(1073.881836 0.015625)"/>
     <use xlink:href="#DejaVuSans-Oblique-78" transform="translate(1112.895508 0.015625)"/>
     <use xlink:href="#DejaVuSans-31" transform="translate(1172.075195 -16.390625) scale(0.7)"/>
     <use xlink:href="#DejaVuSans-29" transform="translate(1219.345703 0.015625)"/>
     <use xlink:href="#DejaVuSans-29" transform="translate(1258.359375 0.015625)"/>
    </g>
   </g>
   <g id="text_10">
    <g id="patch_8">
     <path d="M 273.595675 330.137817 
L 373.868175 330.137817 
Q 376.243175 330.137817 376.243175 327.762817 
L 376.243175 305.819895 
Q 376.243175 303.444895 373.868175 303.444895 
L 273.595675 303.444895 
Q 271.220675 303.444895 271.220675 305.819895 
L 271.220675 327.762817 
Q 271.220675 330.137817 273.595675 330.137817 
L 273.595675 330.137817 
z
" style="fill: none; opacity: 0.88"/>
    </g>
    <!-- Prediction attribution -->
    <g transform="translate(273.595675 313.019113) scale(0.095 -0.095)">
     <use xlink:href="#DejaVuSans-50"/>
     <use xlink:href="#DejaVuSans-72" transform="translate(58.552734 0)"/>
     <use xlink:href="#DejaVuSans-65" transform="translate(97.416016 0)"/>
     <use xlink:href="#DejaVuSans-64" transform="translate(158.939453 0)"/>
     <use xlink:href="#DejaVuSans-69" transform="translate(222.416016 0)"/>
     <use xlink:href="#DejaVuSans-63" transform="translate(250.199219 0)"/>
     <use xlink:href="#DejaVuSans-74" transform="translate(305.179688 0)"/>
     <use xlink:href="#DejaVuSans-69" transform="translate(344.388672 0)"/>
     <use xlink:href="#DejaVuSans-6f" transform="translate(372.171875 0)"/>
     <use xlink:href="#DejaVuSans-6e" transform="translate(433.353516 0)"/>
     <use xlink:href="#DejaVuSans-20" transform="translate(496.732422 0)"/>
     <use xlink:href="#DejaVuSans-61" transform="translate(528.519531 0)"/>
     <use xlink:href="#DejaVuSans-74" transform="translate(589.798828 0)"/>
     <use xlink:href="#DejaVuSans-74" transform="translate(629.007812 0)"/>
     <use xlink:href="#DejaVuSans-72" transform="translate(668.216797 0)"/>
     <use xlink:href="#DejaVuSans-69" transform="translate(709.330078 0)"/>
     <use xlink:href="#DejaVuSans-62" transform="translate(737.113281 0)"/>
     <use xlink:href="#DejaVuSans-75" transform="translate(800.589844 0)"/>
     <use xlink:href="#DejaVuSans-74" transform="translate(863.96875 0)"/>
     <use xlink:href="#DejaVuSans-69" transform="translate(903.177734 0)"/>
     <use xlink:href="#DejaVuSans-6f" transform="translate(930.960938 0)"/>
     <use xlink:href="#DejaVuSans-6e" transform="translate(992.142578 0)"/>
    </g>
    <!-- $\Delta \widehat{y} = f(x_1) - f(x_0)$ -->
    <g transform="translate(285.114425 325.767817) scale(0.095 -0.095)">
     <use xlink:href="#DejaVuSans-394" transform="translate(0 0.953125)"/>
     <use xlink:href="#STIXSizeTwoSym-Regular-302" transform="translate(145.703125 34.046875) scale(0.604453)"/>
     <use xlink:href="#DejaVuSans-Oblique-79" transform="translate(68.408203 0.953125)"/>
     <use xlink:href="#DejaVuSans-3d" transform="translate(147.070312 0.953125)"/>
     <use xlink:href="#DejaVuSans-Oblique-66" transform="translate(250.341797 0.953125)"/>
     <use xlink:href="#DejaVuSans-28" transform="translate(285.546875 0.953125)"/>
     <use xlink:href="#DejaVuSans-Oblique-78" transform="translate(324.560547 0.953125)"/>
     <use xlink:href="#DejaVuSans-31" transform="translate(383.740234 -15.453125) scale(0.7)"/>
     <use xlink:href="#DejaVuSans-29" transform="translate(431.010742 0.953125)"/>
     <use xlink:href="#DejaVuSans-2212" transform="translate(489.506836 0.953125)"/>
     <use xlink:href="#DejaVuSans-Oblique-66" transform="translate(592.77832 0.953125)"/>
     <use xlink:href="#DejaVuSans-28" transform="translate(627.983398 0.953125)"/>
     <use xlink:href="#DejaVuSans-Oblique-78" transform="translate(666.99707 0.953125)"/>
     <use xlink:href="#DejaVuSans-30" transform="translate(726.176758 -15.453125) scale(0.7)"/>
     <use xlink:href="#DejaVuSans-29" transform="translate(773.447266 0.953125)"/>
    </g>
   </g>
  </g>
 </g>
 <defs>
  <clipPath id="p905517ece1">
   <rect x="49.14" y="7.2" width="581.488783" height="327.03875"/>
  </clipPath>
 </defs>
</svg>
